# Blender v2.80 (sub 75) OBJ File: ''
# www.blender.org
mtllib capsule.mtl
o Sphere
v 0.000000 -2.585954 -0.923880
v 0.000000 -3.127150 -0.382683
v 0.382683 -2.203270 -0.923880
v 0.353553 -2.585954 -0.853553
v 0.270598 -2.910377 -0.653281
v 0.146447 -3.127150 -0.353553
v 0.707107 -2.203270 -0.707107
v 0.653281 -2.585954 -0.653281
v 0.500000 -2.910377 -0.500000
v 0.270598 -3.127150 -0.270598
v 0.923879 -2.203270 -0.382683
v 0.853553 -2.585954 -0.353553
v 0.653281 -2.910377 -0.270598
v 0.353553 -3.127150 -0.146447
v 1.000000 -2.203270 -0.000000
v 0.923879 -2.585954 -0.000000
v 0.707107 -2.910377 -0.000000
v 0.382683 -3.127150 -0.000000
v 0.923879 -2.203270 0.382683
v 0.853553 -2.585954 0.353553
v 0.653281 -2.910377 0.270598
v 0.353553 -3.127150 0.146446
v 0.707106 -2.203270 0.707107
v 0.653281 -2.585954 0.653281
v 0.500000 -2.910377 0.500000
v 0.270598 -3.127150 0.270598
v 0.382683 -2.203270 0.923879
v 0.353553 -2.585954 0.853553
v 0.270598 -2.910377 0.653281
v 0.146446 -3.127150 0.353553
v -0.000000 -2.203270 1.000000
v -0.000000 -2.585954 0.923879
v -0.000000 -2.910377 0.707106
v -0.000000 -3.127150 0.382683
v -0.382684 -2.203270 0.923879
v -0.353554 -2.585954 0.853553
v -0.270598 -2.910377 0.653281
v -0.146447 -3.127150 0.353553
v -0.707107 -2.203270 0.707106
v -0.653282 -2.585954 0.653281
v -0.500000 -2.910377 0.499999
v -0.270598 -3.127150 0.270598
v -0.923879 -2.203270 0.382683
v -0.853553 -2.585954 0.353553
v -0.653281 -2.910377 0.270597
v -0.353553 -3.127150 0.146446
v -1.000000 -2.203270 -0.000001
v -0.923879 -2.585954 -0.000001
v -0.707106 -2.910377 -0.000000
v -0.382683 -3.127150 -0.000000
v -0.923879 -2.203270 -0.382684
v -0.853553 -2.585954 -0.353554
v -0.653281 -2.910377 -0.270598
v -0.353553 -3.127150 -0.146447
v -0.707106 -2.203270 -0.707107
v -0.653281 -2.585954 -0.653282
v -0.499999 -2.910377 -0.500000
v -0.270598 -3.127150 -0.270598
v -0.382683 -2.203270 -0.923880
v -0.353553 -2.585954 -0.853553
v -0.270598 -2.910377 -0.653281
v -0.146446 -3.127150 -0.353553
v 0.000001 -2.203270 -1.000000
v 0.000000 -2.910377 -0.707106
v 0.000000 -3.203270 -0.000000
v -0.000000 2.933002 -0.707107
v -0.000000 2.608578 -0.923880
v 0.146446 3.149775 -0.353553
v 0.270598 2.933002 -0.653282
v 0.353553 2.608578 -0.853553
v 0.382683 2.225895 -0.923880
v 0.270598 3.149775 -0.270598
v 0.500000 2.933002 -0.500000
v 0.653281 2.608578 -0.653282
v 0.707107 2.225895 -0.707107
v 0.353553 3.149775 -0.146447
v 0.653281 2.933002 -0.270598
v 0.853553 2.608578 -0.353553
v 0.923879 2.225895 -0.382683
v 0.382683 3.149775 -0.000000
v 0.707106 2.933002 -0.000000
v 0.923879 2.608578 -0.000000
v 1.000000 2.225895 -0.000000
v 0.353553 3.149775 0.146446
v 0.653281 2.933002 0.270598
v 0.853553 2.608578 0.353553
v 0.923879 2.225895 0.382683
v 0.270598 3.149775 0.270598
v 0.500000 2.933002 0.500000
v 0.653281 2.608578 0.653281
v 0.707106 2.225895 0.707107
v 0.146446 3.149775 0.353553
v 0.270598 2.933002 0.653281
v 0.353553 2.608578 0.853553
v 0.382683 2.225895 0.923879
v -0.000000 3.149775 0.382683
v -0.000000 2.933002 0.707106
v -0.000000 2.608578 0.923879
v -0.000000 2.225895 0.999999
v -0.146447 3.149775 0.353553
v -0.270598 2.933002 0.653281
v -0.353554 2.608578 0.853553
v -0.382684 2.225895 0.923879
v -0.270598 3.149775 0.270598
v -0.500000 2.933002 0.499999
v -0.653282 2.608578 0.653281
v -0.707107 2.225895 0.707106
v -0.353553 3.149775 0.146446
v -0.653281 2.933002 0.270597
v -0.853553 2.608578 0.353553
v -0.923879 2.225895 0.382683
v -0.382683 3.149775 -0.000000
v -0.707107 2.933002 -0.000001
v -0.923879 2.608578 -0.000001
v -1.000000 2.225895 -0.000001
v -0.353553 3.149775 -0.146447
v -0.653281 2.933002 -0.270598
v -0.853553 2.608578 -0.353554
v -0.923879 2.225895 -0.382684
v -0.270598 3.149775 -0.270598
v -0.500000 2.933002 -0.500000
v -0.653281 2.608578 -0.653282
v -0.707106 2.225895 -0.707107
v -0.146447 3.149775 -0.353553
v -0.270598 2.933002 -0.653281
v -0.353553 2.608578 -0.853553
v -0.382683 2.225895 -0.923880
v -0.000000 3.225895 -0.000000
v 0.000000 3.149775 -0.382683
v 0.000001 2.225895 -1.000000
vt 0.750000 0.125000
vt 0.750000 0.250000
vt 0.687500 0.250000
vt 0.687500 0.125000
vt 0.750000 0.375000
vt 0.750000 0.500000
vt 0.687500 0.500000
vt 0.687500 0.375000
vt 0.718750 0.000000
vt 0.656250 0.000000
vt 0.625000 0.125000
vt 0.625000 0.375000
vt 0.625000 0.250000
vt 0.625000 0.500000
vt 0.593750 0.000000
vt 0.562500 0.125000
vt 0.562500 0.375000
vt 0.562500 0.250000
vt 0.562500 0.500000
vt 0.500000 0.250000
vt 0.500000 0.125000
vt 0.500000 0.500000
vt 0.500000 0.375000
vt 0.531250 0.000000
vt 0.437500 0.250000
vt 0.437500 0.125000
vt 0.437500 0.500000
vt 0.437500 0.375000
vt 0.468750 0.000000
vt 0.406250 0.000000
vt 0.375000 0.125000
vt 0.375000 0.375000
vt 0.375000 0.250000
vt 0.375000 0.500000
vt 0.312500 0.375000
vt 0.312500 0.250000
vt 0.312500 0.125000
vt 0.312500 0.500000
vt 0.343750 0.000000
vt 0.250000 0.250000
vt 0.250000 0.125000
vt 0.250000 0.500000
vt 0.250000 0.375000
vt 0.281250 0.000000
vt 0.187500 0.500000
vt 0.187500 0.375000
vt 0.218750 0.000000
vt 0.187500 0.125000
vt 0.187500 0.250000
vt 0.156250 0.000000
vt 0.125000 0.125000
vt 0.125000 0.375000
vt 0.125000 0.250000
vt 0.125000 0.500000
vt 0.062500 0.250000
vt 0.062500 0.125000
vt 0.062500 0.500000
vt 0.062500 0.375000
vt 0.093750 0.000000
vt 0.000000 0.250000
vt 0.000000 0.125000
vt 0.000000 0.500000
vt 0.000000 0.375000
vt 0.031250 0.000000
vt 0.687500 0.500000
vt 0.625000 0.500000
vt 0.125000 0.500000
vt 0.062500 0.500000
vt 0.968750 0.000000
vt 1.000000 0.125000
vt 0.937500 0.125000
vt 1.000000 0.250000
vt 1.000000 0.375000
vt 0.937500 0.375000
vt 0.937500 0.250000
vt 0.500000 0.500000
vt 0.437500 0.500000
vt 0.375000 0.500000
vt 1.000000 0.500000
vt 0.937500 0.500000
vt 0.906250 0.000000
vt 0.875000 0.125000
vt 0.875000 0.375000
vt 0.875000 0.250000
vt 0.750000 0.500000
vt 0.812500 0.500000
vt 0.875000 0.500000
vt 0.875000 0.500000
vt 0.812500 0.500000
vt 0.937500 0.500000
vt 0.187500 0.500000
vt 0.250000 0.500000
vt 0.812500 0.250000
vt 0.812500 0.125000
vt 0.812500 0.375000
vt 0.562500 0.500000
vt 0.843750 0.000000
vt 1.000000 0.500000
vt 0.312500 0.500000
vt 0.781250 0.000000
vt 0.000000 0.500000
vt 0.750000 0.625000
vt 0.750000 0.750000
vt 0.687500 0.750000
vt 0.687500 0.625000
vt 0.750000 0.875000
vt 0.718750 1.000000
vt 0.687500 0.875000
vt 0.625000 0.750000
vt 0.625000 0.625000
vt 0.656250 1.000000
vt 0.625000 0.875000
vt 0.562500 0.625000
vt 0.562500 0.875000
vt 0.562500 0.750000
vt 0.593750 1.000000
vt 0.500000 0.875000
vt 0.500000 0.750000
vt 0.500000 0.625000
vt 0.531250 1.000000
vt 0.437500 0.750000
vt 0.437500 0.625000
vt 0.468750 1.000000
vt 0.437500 0.875000
vt 0.406250 1.000000
vt 0.375000 0.875000
vt 0.375000 0.625000
vt 0.375000 0.750000
vt 0.312500 0.625000
vt 0.312500 0.875000
vt 0.312500 0.750000
vt 0.343750 1.000000
vt 0.250000 0.750000
vt 0.250000 0.625000
vt 0.281250 1.000000
vt 0.250000 0.875000
vt 0.187500 0.750000
vt 0.187500 0.625000
vt 0.218750 1.000000
vt 0.187500 0.875000
vt 0.125000 0.625000
vt 0.125000 0.875000
vt 0.125000 0.750000
vt 0.156250 1.000000
vt 0.062500 0.625000
vt 0.062500 0.875000
vt 0.062500 0.750000
vt 0.093750 1.000000
vt 0.000000 0.750000
vt 0.000000 0.625000
vt 0.031250 1.000000
vt 0.000000 0.875000
vt 1.000000 0.625000
vt 1.000000 0.750000
vt 0.937500 0.750000
vt 0.937500 0.625000
vt 1.000000 0.875000
vt 0.968750 1.000000
vt 0.937500 0.875000
vt 0.875000 0.625000
vt 0.875000 0.875000
vt 0.875000 0.750000
vt 0.906250 1.000000
vt 0.812500 0.875000
vt 0.812500 0.750000
vt 0.812500 0.625000
vt 0.843750 1.000000
vt 0.781250 1.000000
vn -0.0000 -0.9152 -0.4031
vn 0.0000 -0.6952 -0.7189
vn 0.2751 -0.6952 -0.6641
vn 0.1543 -0.9152 -0.3724
vn -0.0000 -0.3744 -0.9273
vn 0.0000 -0.0969 -0.9953
vn 0.3809 -0.0969 -0.9195
vn 0.3549 -0.3744 -0.8567
vn 0.0000 -1.0000 0.0000
vn 0.2850 -0.9152 -0.2850
vn 0.6557 -0.3744 -0.6557
vn 0.5083 -0.6952 -0.5083
vn 0.7038 -0.0969 -0.7038
vn 0.3724 -0.9152 -0.1543
vn 0.8567 -0.3744 -0.3549
vn 0.6641 -0.6952 -0.2751
vn 0.9195 -0.0969 -0.3809
vn 0.7189 -0.6952 -0.0000
vn 0.4031 -0.9152 0.0000
vn 0.9953 -0.0969 0.0000
vn 0.9273 -0.3744 0.0000
vn 0.6641 -0.6952 0.2751
vn 0.3724 -0.9152 0.1543
vn 0.9195 -0.0969 0.3809
vn 0.8567 -0.3744 0.3549
vn 0.2850 -0.9152 0.2850
vn 0.6557 -0.3744 0.6557
vn 0.5083 -0.6952 0.5083
vn 0.7038 -0.0969 0.7038
vn 0.3549 -0.3744 0.8567
vn 0.2751 -0.6952 0.6641
vn 0.1543 -0.9152 0.3724
vn 0.3809 -0.0969 0.9195
vn -0.0000 -0.6952 0.7189
vn -0.0000 -0.9152 0.4031
vn -0.0000 -0.0969 0.9953
vn -0.0000 -0.3744 0.9273
vn -0.3809 -0.0969 0.9195
vn -0.3549 -0.3744 0.8567
vn -0.1543 -0.9152 0.3724
vn -0.2751 -0.6952 0.6641
vn -0.2850 -0.9152 0.2850
vn -0.6557 -0.3744 0.6557
vn -0.5083 -0.6952 0.5083
vn -0.7038 -0.0969 0.7038
vn -0.6641 -0.6952 0.2751
vn -0.3724 -0.9152 0.1543
vn -0.9195 -0.0969 0.3809
vn -0.8567 -0.3744 0.3549
vn -0.7189 -0.6952 -0.0000
vn -0.4031 -0.9152 -0.0000
vn -0.9953 -0.0969 -0.0000
vn -0.9273 -0.3744 -0.0000
vn 0.3809 0.0969 -0.9195
vn 0.7038 0.0969 -0.7038
vn -0.7038 0.0969 0.7038
vn -0.9195 0.0969 0.3809
vn -0.3724 -0.9152 -0.1543
vn -0.8567 -0.3744 -0.3549
vn -0.6641 -0.6952 -0.2751
vn 0.9953 0.0969 0.0000
vn 0.9195 0.0969 0.3809
vn 0.7038 0.0969 0.7038
vn -0.9195 -0.0969 -0.3809
vn -0.2850 -0.9152 -0.2850
vn -0.6557 -0.3744 -0.6557
vn -0.5083 -0.6952 -0.5083
vn 0.0000 0.0969 -0.9953
vn -0.3809 -0.0969 -0.9195
vn -0.7038 -0.0969 -0.7038
vn -0.7038 0.0969 -0.7038
vn -0.3809 0.0969 -0.9195
vn -0.9195 0.0969 -0.3809
vn -0.3809 0.0969 0.9195
vn -0.0000 0.0969 0.9953
vn -0.2751 -0.6952 -0.6641
vn -0.1543 -0.9152 -0.3724
vn -0.3549 -0.3744 -0.8567
vn 0.9195 0.0969 -0.3809
vn -0.9953 0.0969 -0.0000
vn 0.3809 0.0969 0.9195
vn -0.0000 0.3744 -0.9273
vn -0.0000 0.6952 -0.7189
vn 0.2751 0.6952 -0.6641
vn 0.3549 0.3744 -0.8567
vn -0.0000 0.9152 -0.4031
vn 0.0000 1.0000 0.0000
vn 0.1543 0.9152 -0.3724
vn 0.5083 0.6952 -0.5083
vn 0.6557 0.3744 -0.6557
vn 0.2850 0.9152 -0.2850
vn 0.8567 0.3744 -0.3549
vn 0.3724 0.9152 -0.1543
vn 0.6641 0.6952 -0.2751
vn 0.4031 0.9152 -0.0000
vn 0.7189 0.6952 0.0000
vn 0.9273 0.3744 0.0000
vn 0.6641 0.6952 0.2751
vn 0.8567 0.3744 0.3549
vn 0.3724 0.9152 0.1543
vn 0.2850 0.9152 0.2850
vn 0.6557 0.3744 0.6557
vn 0.5083 0.6952 0.5083
vn 0.3549 0.3744 0.8567
vn 0.1543 0.9152 0.3724
vn 0.2751 0.6952 0.6641
vn -0.0000 0.6952 0.7189
vn -0.0000 0.3744 0.9273
vn -0.0000 0.9152 0.4031
vn -0.2751 0.6952 0.6641
vn -0.3549 0.3744 0.8567
vn -0.1543 0.9152 0.3724
vn -0.6557 0.3744 0.6557
vn -0.2850 0.9152 0.2850
vn -0.5083 0.6952 0.5083
vn -0.8567 0.3744 0.3549
vn -0.3724 0.9152 0.1543
vn -0.6641 0.6952 0.2751
vn -0.7189 0.6952 -0.0000
vn -0.9273 0.3744 -0.0000
vn -0.4031 0.9152 -0.0000
vn -0.6641 0.6952 -0.2751
vn -0.8567 0.3744 -0.3549
vn -0.3724 0.9152 -0.1543
vn -0.6557 0.3744 -0.6557
vn -0.2850 0.9152 -0.2850
vn -0.5083 0.6952 -0.5083
vn -0.1543 0.9152 -0.3724
vn -0.2751 0.6952 -0.6641
vn -0.3549 0.3744 -0.8567
usemtl None
s 1
f 2/1/1 64/2/2 5/3/3 6/4/4
f 1/5/5 63/6/6 3/7/7 4/8/8
f 65/9/9 2/1/1 6/4/4
f 64/2/2 1/5/5 4/8/8 5/3/3
f 65/10/9 6/4/4 10/11/10
f 5/3/3 4/8/8 8/12/11 9/13/12
f 6/4/4 5/3/3 9/13/12 10/11/10
f 4/8/8 3/7/7 7/14/13 8/12/11
f 65/15/9 10/11/10 14/16/14
f 9/13/12 8/12/11 12/17/15 13/18/16
f 10/11/10 9/13/12 13/18/16 14/16/14
f 8/12/11 7/14/13 11/19/17 12/17/15
f 14/16/14 13/18/16 17/20/18 18/21/19
f 12/17/15 11/19/17 15/22/20 16/23/21
f 65/24/9 14/16/14 18/21/19
f 13/18/16 12/17/15 16/23/21 17/20/18
f 18/21/19 17/20/18 21/25/22 22/26/23
f 16/23/21 15/22/20 19/27/24 20/28/25
f 65/29/9 18/21/19 22/26/23
f 17/20/18 16/23/21 20/28/25 21/25/22
f 65/30/9 22/26/23 26/31/26
f 21/25/22 20/28/25 24/32/27 25/33/28
f 22/26/23 21/25/22 25/33/28 26/31/26
f 20/28/25 19/27/24 23/34/29 24/32/27
f 25/33/28 24/32/27 28/35/30 29/36/31
f 26/31/26 25/33/28 29/36/31 30/37/32
f 24/32/27 23/34/29 27/38/33 28/35/30
f 65/39/9 26/31/26 30/37/32
f 30/37/32 29/36/31 33/40/34 34/41/35
f 28/35/30 27/38/33 31/42/36 32/43/37
f 65/44/9 30/37/32 34/41/35
f 29/36/31 28/35/30 32/43/37 33/40/34
f 32/43/37 31/42/36 35/45/38 36/46/39
f 65/47/9 34/41/35 38/48/40
f 33/40/34 32/43/37 36/46/39 37/49/41
f 34/41/35 33/40/34 37/49/41 38/48/40
f 65/50/9 38/48/40 42/51/42
f 37/49/41 36/46/39 40/52/43 41/53/44
f 38/48/40 37/49/41 41/53/44 42/51/42
f 36/46/39 35/45/38 39/54/45 40/52/43
f 42/51/42 41/53/44 45/55/46 46/56/47
f 40/52/43 39/54/45 43/57/48 44/58/49
f 65/59/9 42/51/42 46/56/47
f 41/53/44 40/52/43 44/58/49 45/55/46
f 46/56/47 45/55/46 49/60/50 50/61/51
f 44/58/49 43/57/48 47/62/52 48/63/53
f 65/64/9 46/56/47 50/61/51
f 45/55/46 44/58/49 48/63/53 49/60/50
f 7/14/13 3/7/7 71/65/54 75/66/55
f 43/57/48 39/54/45 107/67/56 111/68/57
f 65/69/9 50/70/51 54/71/58
f 49/72/50 48/73/53 52/74/59 53/75/60
f 19/27/24 15/22/20 83/76/61 87/77/62
f 23/34/29 19/27/24 87/77/62 91/78/63
f 50/70/51 49/72/50 53/75/60 54/71/58
f 48/73/53 47/79/52 51/80/64 52/74/59
f 65/81/9 54/71/58 58/82/65
f 53/75/60 52/74/59 56/83/66 57/84/67
f 3/7/7 63/6/6 130/85/68 71/65/54
f 59/86/69 55/87/70 123/88/71 127/89/72
f 54/71/58 53/75/60 57/84/67 58/82/65
f 52/74/59 51/80/64 55/87/70 56/83/66
f 55/87/70 51/80/64 119/90/73 123/88/71
f 39/54/45 35/45/38 103/91/74 107/67/56
f 35/45/38 31/42/36 99/92/75 103/91/74
f 58/82/65 57/84/67 61/93/76 62/94/77
f 56/83/66 55/87/70 59/86/69 60/95/78
f 15/22/20 11/19/17 79/96/79 83/76/61
f 11/19/17 7/14/13 75/66/55 79/96/79
f 65/97/9 58/82/65 62/94/77
f 57/84/67 56/83/66 60/95/78 61/93/76
f 51/80/64 47/79/52 115/98/80 119/90/73
f 62/94/77 61/93/76 64/2/2 2/1/1
f 60/95/78 59/86/69 63/6/6 1/5/5
f 27/38/33 23/34/29 91/78/63 95/99/81
f 63/6/6 59/86/69 127/89/72 130/85/68
f 65/100/9 62/94/77 2/1/1
f 61/93/76 60/95/78 1/5/5 64/2/2
f 47/62/52 43/57/48 111/68/57 115/101/80
f 31/42/36 27/38/33 95/99/81 99/92/75
f 67/102/82 66/103/83 69/104/84 70/105/85
f 129/106/86 128/107/87 68/108/88
f 130/85/68 67/102/82 70/105/85 71/65/54
f 66/103/83 129/106/86 68/108/88 69/104/84
f 70/105/85 69/104/84 73/109/89 74/110/90
f 68/108/88 128/111/87 72/112/91
f 71/65/54 70/105/85 74/110/90 75/66/55
f 69/104/84 68/108/88 72/112/91 73/109/89
f 75/66/55 74/110/90 78/113/92 79/96/79
f 73/109/89 72/112/91 76/114/93 77/115/94
f 74/110/90 73/109/89 77/115/94 78/113/92
f 72/112/91 128/116/87 76/114/93
f 77/115/94 76/114/93 80/117/95 81/118/96
f 78/113/92 77/115/94 81/118/96 82/119/97
f 76/114/93 128/120/87 80/117/95
f 79/96/79 78/113/92 82/119/97 83/76/61
f 82/119/97 81/118/96 85/121/98 86/122/99
f 80/117/95 128/123/87 84/124/100
f 83/76/61 82/119/97 86/122/99 87/77/62
f 81/118/96 80/117/95 84/124/100 85/121/98
f 84/124/100 128/125/87 88/126/101
f 87/77/62 86/122/99 90/127/102 91/78/63
f 85/121/98 84/124/100 88/126/101 89/128/103
f 86/122/99 85/121/98 89/128/103 90/127/102
f 91/78/63 90/127/102 94/129/104 95/99/81
f 89/128/103 88/126/101 92/130/105 93/131/106
f 90/127/102 89/128/103 93/131/106 94/129/104
f 88/126/101 128/132/87 92/130/105
f 94/129/104 93/131/106 97/133/107 98/134/108
f 92/130/105 128/135/87 96/136/109
f 95/99/81 94/129/104 98/134/108 99/92/75
f 93/131/106 92/130/105 96/136/109 97/133/107
f 98/134/108 97/133/107 101/137/110 102/138/111
f 96/136/109 128/139/87 100/140/112
f 99/92/75 98/134/108 102/138/111 103/91/74
f 97/133/107 96/136/109 100/140/112 101/137/110
f 103/91/74 102/138/111 106/141/113 107/67/56
f 101/137/110 100/140/112 104/142/114 105/143/115
f 102/138/111 101/137/110 105/143/115 106/141/113
f 100/140/112 128/144/87 104/142/114
f 107/67/56 106/141/113 110/145/116 111/68/57
f 105/143/115 104/142/114 108/146/117 109/147/118
f 106/141/113 105/143/115 109/147/118 110/145/116
f 104/142/114 128/148/87 108/146/117
f 110/145/116 109/147/118 113/149/119 114/150/120
f 108/146/117 128/151/87 112/152/121
f 111/68/57 110/145/116 114/150/120 115/101/80
f 109/147/118 108/146/117 112/152/121 113/149/119
f 114/153/120 113/154/119 117/155/122 118/156/123
f 112/157/121 128/158/87 116/159/124
f 115/98/80 114/153/120 118/156/123 119/90/73
f 113/154/119 112/157/121 116/159/124 117/155/122
f 119/90/73 118/156/123 122/160/125 123/88/71
f 117/155/122 116/159/124 120/161/126 121/162/127
f 118/156/123 117/155/122 121/162/127 122/160/125
f 116/159/124 128/163/87 120/161/126
f 121/162/127 120/161/126 124/164/128 125/165/129
f 122/160/125 121/162/127 125/165/129 126/166/130
f 120/161/126 128/167/87 124/164/128
f 123/88/71 122/160/125 126/166/130 127/89/72
f 126/166/130 125/165/129 66/103/83 67/102/82
f 124/164/128 128/168/87 129/106/86
f 127/89/72 126/166/130 67/102/82 130/85/68
f 125/165/129 124/164/128 129/106/86 66/103/83
